<?xml version="1.0" standalone="no"?>
<!DOCTYPE svg PUBLIC "-//W3C//DTD SVG 20010904//EN"
        "http://www.w3.org/TR/2001/REC-SVG-20010904/DTD/svg10.dtd">
<svg version="1.0" xmlns="http://www.w3.org/2000/svg"
     width="458.000000pt" height="122.000000pt" viewBox="0 0 458.000000 122.000000"
     preserveAspectRatio="xMidYMid meet">
    <g transform="translate(0.000000,122.000000) scale(0.100000,-0.100000)"
       fill="#000000" stroke="none">
        <path d="M282 675 c-144 -289 -262 -530 -262 -535 0 -7 184 -10 530 -10 346 0
530 3 530 10 0 13 -523 1060 -530 1060 -3 0 -123 -236 -268 -525z"/>
        <path d="M1250 635 l0 -435 65 0 65 0 0 118 c0 99 3 122 20 147 18 27 20 28
27 10 4 -11 28 -76 53 -145 l45 -125 68 -3 c37 -2 67 -1 67 1 0 3 -30 83 -66
178 -36 96 -66 181 -66 189 -1 8 29 65 65 125 37 61 67 113 67 118 0 4 -30 7
-67 7 l-68 -1 -70 -114 -70 -114 -3 239 -2 240 -65 0 -65 0 0 -435z"/>
        <path d="M2970 635 l0 -435 64 0 c41 0 66 4 68 12 3 8 11 7 28 -5 30 -21 101
-22 140 -2 68 35 95 140 88 353 -5 153 -20 205 -70 247 -38 32 -108 34 -155 5
l-33 -20 0 140 0 140 -65 0 -65 0 0 -435z m236 70 c12 -18 18 -57 22 -133 6
-137 -4 -235 -27 -264 -17 -20 -21 -21 -60 -10 l-41 13 0 194 0 194 28 15 c39
22 59 19 78 -9z"/>
        <path d="M3450 635 l0 -435 65 0 65 0 0 435 0 435 -65 0 -65 0 0 -435z"/>
        <path d="M1785 811 c-27 -12 -48 -32 -65 -62 -24 -43 -25 -49 -25 -239 0 -183
1 -198 23 -237 30 -58 81 -83 165 -83 50 0 71 5 97 23 73 49 90 106 90 301 0
238 -48 316 -192 316 -30 0 -71 -9 -93 -19z m135 -100 c6 -12 10 -95 10 -201
0 -106 -4 -189 -10 -201 -7 -12 -21 -19 -39 -19 -52 0 -56 15 -56 220 0 205 4
220 56 220 18 0 32 -7 39 -19z"/>
        <path d="M2232 809 c-49 -25 -79 -73 -89 -144 l-6 -45 35 0 c20 0 49 -3 65 -6
29 -6 30 -5 35 40 6 53 22 76 52 76 41 0 51 -16 51 -80 l0 -62 -52 -22 c-127
-53 -182 -121 -183 -219 0 -93 54 -157 133 -157 44 0 75 14 99 43 l16 22 7
-28 c7 -25 10 -27 64 -27 l57 0 -4 253 c-3 234 -5 255 -25 297 -28 57 -71 80
-152 80 -41 0 -74 -7 -103 -21z m127 -485 c-28 -30 -53 -30 -73 -2 -33 46 -11
111 52 153 l37 25 3 -76 c3 -68 0 -80 -19 -100z"/>
        <path d="M3775 816 c-37 -17 -70 -52 -85 -91 -17 -43 -25 -287 -12 -370 19
-115 72 -165 179 -165 89 0 138 26 166 88 19 40 22 69 25 202 6 225 -18 300
-105 336 -41 18 -129 17 -168 0z m133 -131 c19 -55 13 -355 -7 -378 -19 -24
-68 -22 -81 2 -14 26 -13 376 1 402 8 15 19 19 42 17 27 -3 34 -9 45 -43z"/>
        <path d="M4224 816 c-39 -17 -79 -69 -93 -120 -23 -85 0 -219 43 -255 14 -12
13 -17 -14 -48 -41 -46 -43 -92 -8 -130 l20 -21 -21 -11 c-29 -16 -51 -63 -51
-109 0 -45 36 -87 91 -102 59 -17 199 -12 244 9 64 29 79 53 83 129 5 114 -35
153 -173 167 -97 9 -107 13 -103 38 3 20 8 22 53 19 72 -4 133 29 163 88 21
40 23 55 19 146 l-4 102 41 13 c56 17 59 21 41 62 -19 45 -38 47 -87 7 -35
-29 -37 -30 -47 -11 -21 39 -134 54 -197 27z m121 -96 c26 -28 33 -152 12
-203 -13 -31 -21 -37 -46 -37 -57 0 -78 51 -68 163 4 47 11 66 27 79 29 23 53
23 75 -2z m62 -527 c17 -22 16 -35 -1 -58 -19 -27 -135 -34 -171 -11 -30 20
-31 39 -6 75 19 27 21 27 93 20 51 -6 77 -13 85 -26z"/>
        <path d="M2550 100 l0 -50 190 0 190 0 0 50 0 50 -190 0 -190 0 0 -50z"/>
    </g>
</svg>
